<svg width="12" height="12" viewBox="0 0 12 12" fill="none" xmlns="http://www.w3.org/2000/svg">
<path d="M9.5504 4.66749C9.5504 4.2356 9.46533 3.80794 9.30006 3.40893C9.13478 3.00991 8.89253 2.64736 8.58714 2.34197C8.28175 2.03658 7.91919 1.79433 7.52018 1.62905C7.12117 1.46377 6.69351 1.37871 6.26162 1.37871C5.82973 1.37871 5.40207 1.46377 5.00306 1.62905C4.60404 1.79433 4.24149 2.03658 3.9361 2.34197C3.63071 2.64736 3.38846 3.00991 3.22318 3.40893C3.05791 3.80794 2.97284 4.2356 2.97284 4.66749C2.97284 5.31914 3.16547 5.92521 3.492 6.43638H3.48824C4.59703 8.17239 6.26162 10.7752 6.26162 10.7752L9.035 6.43638H9.03171C9.37018 5.90847 9.55019 5.29458 9.5504 4.66749ZM6.26162 6.07696C5.8878 6.07696 5.5293 5.92847 5.26497 5.66414C5.00064 5.39981 4.85214 5.0413 4.85214 4.66749C4.85214 4.29367 5.00064 3.93517 5.26497 3.67084C5.5293 3.40651 5.8878 3.25801 6.26162 3.25801C6.63544 3.25801 6.99394 3.40651 7.25827 3.67084C7.5226 3.93517 7.6711 4.29367 7.6711 4.66749C7.6711 5.0413 7.5226 5.39981 7.25827 5.66414C6.99394 5.92847 6.63544 6.07696 6.26162 6.07696Z" fill="#F53838"/>
</svg>
