<svg width="12" height="12" viewBox="0 0 12 12" fill="none" xmlns="http://www.w3.org/2000/svg">
<path d="M9.94405 1.84851H2.42683C2.17762 1.84851 1.93862 1.94751 1.7624 2.12373C1.58618 2.29995 1.48718 2.53895 1.48718 2.78816V4.66746C1.48718 4.91668 1.58618 5.15568 1.7624 5.3319C1.93862 5.50812 2.17762 5.60712 2.42683 5.60712H9.94405C10.1933 5.60712 10.4323 5.50812 10.6085 5.3319C10.7847 5.15568 10.8837 4.91668 10.8837 4.66746V2.78816C10.8837 2.53895 10.7847 2.29995 10.6085 2.12373C10.4323 1.94751 10.1933 1.84851 9.94405 1.84851ZM7.59492 3.72781C7.59492 3.98729 7.38457 4.19764 7.12509 4.19764C6.86561 4.19764 6.65527 3.98729 6.65527 3.72781C6.65527 3.46834 6.86561 3.25799 7.12509 3.25799C7.38457 3.25799 7.59492 3.46834 7.59492 3.72781ZM9.47422 3.72781C9.47422 3.98729 9.26387 4.19764 9.00439 4.19764C8.74492 4.19764 8.53457 3.98729 8.53457 3.72781C8.53457 3.46834 8.74492 3.25799 9.00439 3.25799C9.26387 3.25799 9.47422 3.46834 9.47422 3.72781ZM9.94405 6.54677H2.42683C2.17762 6.54677 1.93862 6.64577 1.7624 6.82198C1.58618 6.9982 1.48718 7.23721 1.48718 7.48642V9.36572C1.48718 9.61493 1.58618 9.85394 1.7624 10.0302C1.93862 10.2064 2.17762 10.3054 2.42683 10.3054H9.94405C10.1933 10.3054 10.4323 10.2064 10.6085 10.0302C10.7847 9.85394 10.8837 9.61493 10.8837 9.36572V7.48642C10.8837 7.23721 10.7847 6.9982 10.6085 6.82198C10.4323 6.64577 10.1933 6.54677 9.94405 6.54677ZM7.59492 8.42607C7.59492 8.68555 7.38457 8.8959 7.12509 8.8959C6.86561 8.8959 6.65527 8.68555 6.65527 8.42607C6.65527 8.16659 6.86561 7.95624 7.12509 7.95624C7.38457 7.95624 7.59492 8.16659 7.59492 8.42607ZM9.47422 8.42607C9.47422 8.68555 9.26387 8.8959 9.00439 8.8959C8.74492 8.8959 8.53457 8.68555 8.53457 8.42607C8.53457 8.16659 8.74492 7.95624 9.00439 7.95624C9.26387 7.95624 9.47422 8.16659 9.47422 8.42607Z" fill="#F53838"/>
</svg>
