<svg width="12" height="12" viewBox="0 0 12 12" fill="none" xmlns="http://www.w3.org/2000/svg">
<path fill-rule="evenodd" clip-rule="evenodd" d="M6.20429 5.51316C6.65287 5.51316 7.08307 5.33496 7.40027 5.01777C7.71746 4.70058 7.89566 4.27037 7.89566 3.82179C7.89566 3.37321 7.71746 2.943 7.40027 2.62581C7.08307 2.30861 6.65287 2.13042 6.20429 2.13042C5.75571 2.13042 5.3255 2.30861 5.00831 2.62581C4.69111 2.943 4.51291 3.37321 4.51291 3.82179C4.51291 4.27037 4.69111 4.70058 5.00831 5.01777C5.3255 5.33496 5.75571 5.51316 6.20429 5.51316ZM3.80754 10.5873C2.95162 10.5873 2.23061 9.86778 2.55816 9.077C2.7565 8.59819 3.0472 8.16313 3.41366 7.79666C3.78013 7.43019 4.2152 7.13949 4.69401 6.94116C5.17283 6.74282 5.68602 6.64074 6.20429 6.64074C6.72255 6.64074 7.23575 6.74282 7.71456 6.94116C8.19338 7.13949 8.62844 7.43019 8.99491 7.79666C9.36138 8.16313 9.65208 8.59819 9.85041 9.077C10.178 9.86778 9.45696 10.5873 8.60103 10.5873H3.80754Z" fill="#F53838"/>
</svg>
